<svg xmlns="http://www.w3.org/2000/svg" width="21.97" height="12" viewBox="0 0 21.97 12">
  <defs>
    <style>
      .cls-1 {
        fill: #efc742;
        fill-rule: evenodd;
      }
    </style>
  </defs>
  <path id="Arrow" class="cls-1" d="M1028.56,277.207l-9.65,9.411a1.364,1.364,0,0,1-1.89,0,1.277,1.277,0,0,1,0-1.837l9.66-9.41a1.352,1.352,0,0,1,1.88,0A1.275,1.275,0,0,1,1028.56,277.207Zm-9.65,9.411a1.364,1.364,0,0,1-1.89,0l-9.66-9.411a1.275,1.275,0,0,1,0-1.836,1.364,1.364,0,0,1,1.89,0l9.66,9.41A1.277,1.277,0,0,1,1018.91,286.618Z" transform="translate(-1007 -275)"/>
</svg>
