<?xml version="1.0" encoding="utf-8"?>
<!-- Generator: Adobe Illustrator 23.0.6, SVG Export Plug-In . SVG Version: 6.00 Build 0)  -->
<svg version="1.1" id="Слой_1" xmlns="http://www.w3.org/2000/svg" xmlns:xlink="http://www.w3.org/1999/xlink" x="0px" y="0px"
	 viewBox="0 0 384 384" style="enable-background:new 0 0 384 384;" xml:space="preserve">
<style type="text/css">
	.st0{fill:#EFC742;}
</style>
<path class="st0" d="M343.6,101c-8,3.8-11.3,13.4-7.4,21.4c10.5,21.7,15.8,45.1,15.8,69.6c0,88.2-71.8,160-160,160S32,280.2,32,192
	S103.8,32,192,32c36.6,0,70.9,11.9,99.3,34.5c6.9,5.5,17,4.4,22.5-2.6c5.5-6.9,4.4-17-2.6-22.5C277.6,14.7,235.2,0,192,0
	C86.1,0,0,86.1,0,192s86.1,192,192,192s192-86.1,192-192c0-29.3-6.4-57.4-19-83.5C361.1,100.5,351.5,97.2,343.6,101z"/>
<path class="st0" d="M192,64c-8.8,0-16,7.2-16,16v112c0,8.8,7.2,16,16,16h80c8.8,0,16-7.2,16-16s-7.2-16-16-16h-64V80
	C208,71.2,200.8,64,192,64z"/>
</svg>
